<?xml version="1.0" ?><svg viewBox="2924 928 120 120" xmlns="http://www.w3.org/2000/svg"><defs><style>
      .cls-1 {
        fill: #0161D5;
      }

      .cls-2 {
        fill: #fff;
      }

      .cls-3 {
        fill: none;
        stroke: #fff;
        stroke-width: 6px;
      }
    </style></defs><g data-name="Group 60" id="Group_60" transform="translate(2890 806)"><circle class="cls-1" cx="60" cy="60" data-name="Ellipse 47" id="Ellipse_47" r="60" transform="translate(34 122)"/><g data-name="Group 59" id="Group_59" transform="translate(-125.1 -59.1)"><path class="cls-2" d="M3.25.1A3.15,3.15,0,0,1,6.4,3.25V24.588L5.4,29.9l-5.3,1V3.25A3.15,3.15,0,0,1,3.25.1Z" data-name="Path 159" id="Path_159" transform="translate(175 218)"/><path class="cls-3" d="M12.85.1A12.75,12.75,0,1,1,.1,12.85,12.75,12.75,0,0,1,12.85.1Z" data-name="Path 157" id="Path_157" transform="translate(207 235.1)"/><rect class="cls-2" data-name="Rectangle 18" height="39" id="Rectangle_18" rx="3.25" transform="translate(232.512 235.183) rotate(-40)" width="6.5"/><rect class="cls-2" data-name="Rectangle 19" height="39" id="Rectangle_19" rx="3.25" transform="matrix(-0.766, -0.643, 0.643, -0.766, 237.491, 265.059)" width="6.5"/><path class="cls-3" d="M12.85.1A12.75,12.75,0,1,1,.1,12.85,12.75,12.75,0,0,1,12.85.1Z" data-name="Path 158" id="Path_158" transform="translate(178 235.1)"/></g></g></svg>